<?xml version="1.0" encoding="utf-8"?>
<!-- Generator: Adobe Illustrator 19.2.1, SVG Export Plug-In . SVG Version: 6.00 Build 0)  -->
<svg version="1.1" id="layer" xmlns="http://www.w3.org/2000/svg" xmlns:xlink="http://www.w3.org/1999/xlink" x="0px" y="0px"
	 viewBox="0 0 652 652" style="enable-background:new 0 0 652 652;" xml:space="preserve">
<style type="text/css">
	.st0{fill:#EA5317;}
	.st1{fill:#FFFFFF;}
	.st2{filter:url(#Adobe_OpacityMaskFilter);}
	.st3{enable-background:new    ;}
	.st4{filter:url(#Adobe_OpacityMaskFilter_1_);}
	.st5{mask:url(#SVGID_1_);}
	.st6{clip-path:url(#SVGID_3_);fill:url(#SVGID_4_);}
	.st7{clip-path:url(#SVGID_6_);fill:url(#SVGID_7_);}
	.st8{filter:url(#Adobe_OpacityMaskFilter_2_);}
	.st9{filter:url(#Adobe_OpacityMaskFilter_3_);}
	.st10{mask:url(#SVGID_8_);}
	.st11{clip-path:url(#SVGID_10_);fill:url(#SVGID_11_);}
	.st12{clip-path:url(#SVGID_13_);fill:url(#SVGID_14_);}
	.st13{filter:url(#Adobe_OpacityMaskFilter_4_);}
	.st14{filter:url(#Adobe_OpacityMaskFilter_5_);}
	.st15{clip-path:url(#SVGID_17_);mask:url(#SVGID_15_);fill:url(#SVGID_18_);}
	.st16{clip-path:url(#SVGID_20_);}
	.st17{clip-path:url(#SVGID_22_);fill:url(#SVGID_23_);}
	.st18{filter:url(#Adobe_OpacityMaskFilter_6_);}
	.st19{filter:url(#Adobe_OpacityMaskFilter_7_);}
	.st20{clip-path:url(#SVGID_26_);mask:url(#SVGID_24_);fill:url(#SVGID_27_);}
	.st21{clip-path:url(#SVGID_29_);}
	.st22{clip-path:url(#SVGID_31_);fill:url(#SVGID_32_);}
	.st23{filter:url(#Adobe_OpacityMaskFilter_8_);}
	.st24{filter:url(#Adobe_OpacityMaskFilter_9_);}
	.st25{mask:url(#SVGID_33_);}
	.st26{clip-path:url(#SVGID_35_);fill:url(#SVGID_36_);}
	.st27{clip-path:url(#SVGID_38_);fill:url(#SVGID_39_);}
</style>
<polygon class="st0" points="512.1,278.5 472.3,278.5 472.3,258 574.1,258 574.1,278.5 534.3,278.5 534.3,383.6 512.1,383.6 "/>
<polygon class="st0" points="585.8,258 610.2,258 648.1,354.6 685.7,258 709.6,258 657.4,384.5 638,384.5 "/>
<path class="st1" d="M377.9,282.9v25.6l66-0.4c-0.5-8.6-1.3-16.9-2.7-25.2H377.9z"/>
<path class="st1" d="M377.9,359.8h63.5c1.3-8.8,2.2-17.8,2.6-26.9l-66.2,0.4V359.8z"/>
<path class="st1" d="M350.3,384.5V258.2h85.8C408,150.9,310.4,71.7,194.3,71.7c-138,0-250,111.9-250,250c0,138,112,250,250,250
	c116.4,0,214.1-79.5,242.1-187.1H350.3z M191.6,279.3l-69.5,80.8h69.5v24.4H86.3v-21.1l69.5-80.9H88.5v-24.3h103.1V279.3z
	 M316.9,282.9h-68.6v25.6h68.6v24.8h-68.6v26.5h68.6v24.8h-96.2V258.2h96.2V282.9z"/>
<defs>
	<filter id="Adobe_OpacityMaskFilter" filterUnits="userSpaceOnUse" x="-298.2" y="-167" width="977" height="977.3">
		<feFlood  style="flood-color:white;flood-opacity:1" result="back"/>
		<feBlend  in="SourceGraphic" in2="back" mode="normal"/>
	</filter>
</defs>
<mask maskUnits="userSpaceOnUse" x="-298.2" y="-167" width="977" height="977.3" id="SVGID_1_">
	<g class="st2">
		<g class="st3">
			<defs>
				<filter id="Adobe_OpacityMaskFilter_1_" filterUnits="userSpaceOnUse" x="-298.2" y="-167" width="977" height="977.3">
					<feFlood  style="flood-color:white;flood-opacity:1" result="back"/>
					<feBlend  in="SourceGraphic" in2="back" mode="normal"/>
				</filter>
			</defs>
			<mask maskUnits="userSpaceOnUse" x="-298.2" y="-167" width="977" height="977.3" id="SVGID_1_">
				<g class="st4">
					<g class="st3">
					</g>
				</g>
			</mask>
			<g class="st5">
				<g>
					<defs>
						<path id="SVGID_2_" d="M350.3,384.5V258.2h85.8C408.1,150.9,310.4,71.7,194.3,71.7c-138,0-250,112-250,250
							c0,138,112,250,250,250c116.4,0,214.1-79.5,242.1-187.1H350.3z M191.6,279.3l-69.5,80.8h69.5v24.4H86.3v-21.1l69.6-80.9H88.5
							v-24.3h103.1V279.3z M316.9,282.9h-68.6v25.6h68.6v24.8h-68.6v26.5h68.6v24.8h-96.2V258.2h96.2V282.9z"/>
					</defs>
					<clipPath id="SVGID_3_">
						<use xlink:href="#SVGID_2_"  style="overflow:visible;"/>
					</clipPath>
					
						<linearGradient id="SVGID_4_" gradientUnits="userSpaceOnUse" x1="-21.3899" y1="910.4943" x2="-2.3038" y2="910.4943" gradientTransform="matrix(16.1172 20.6526 20.6526 -16.1172 -18421.8945 15242.1357)">
						<stop  offset="0" style="stop-color:#F8F8F8"/>
						<stop  offset="0.4884" style="stop-color:#F8F8F8"/>
						<stop  offset="1" style="stop-color:#FFFFFF"/>
					</linearGradient>
					<polygon class="st6" points="250.1,-167 678.8,382.4 130.6,810.3 -298.2,260.9 					"/>
				</g>
			</g>
		</g>
	</g>
</mask>
<g>
	<g>
		<g>
			<defs>
				<path id="SVGID_5_" d="M350.3,384.5V258.2h85.8C408.1,150.9,310.4,71.7,194.3,71.7c-138,0-250,112-250,250
					c0,138,112,250,250,250c116.4,0,214.1-79.5,242.1-187.1H350.3z M191.6,279.3l-69.5,80.8h69.5v24.4H86.3v-21.1l69.6-80.9H88.5
					v-24.3h103.1V279.3z M316.9,282.9h-68.6v25.6h68.6v24.8h-68.6v26.5h68.6v24.8h-96.2V258.2h96.2V282.9z"/>
			</defs>
			<clipPath id="SVGID_6_">
				<use xlink:href="#SVGID_5_"  style="overflow:visible;"/>
			</clipPath>
			
				<linearGradient id="SVGID_7_" gradientUnits="userSpaceOnUse" x1="-21.3899" y1="910.4943" x2="-2.3037" y2="910.4943" gradientTransform="matrix(16.1172 20.6526 20.6526 -16.1172 -18421.8945 15242.1357)">
				<stop  offset="0" style="stop-color:#FCD022"/>
				<stop  offset="9.822749e-002" style="stop-color:#FAC71E"/>
				<stop  offset="0.2609" style="stop-color:#F6AD13"/>
				<stop  offset="0.4668" style="stop-color:#F08502"/>
				<stop  offset="0.4884" style="stop-color:#EF8000"/>
				<stop  offset="0.5886" style="stop-color:#EE7602"/>
				<stop  offset="0.7567" style="stop-color:#EB5C08"/>
				<stop  offset="0.971" style="stop-color:#E73211"/>
				<stop  offset="1" style="stop-color:#E62C12"/>
			</linearGradient>
			<polygon class="st7" points="250.1,-167 678.8,382.4 130.5,810.3 -298.2,260.9 			"/>
		</g>
	</g>
</g>
<defs>
	<filter id="Adobe_OpacityMaskFilter_2_" filterUnits="userSpaceOnUse" x="-299.3" y="-168.1" width="979.3" height="979.5">
		<feFlood  style="flood-color:white;flood-opacity:1" result="back"/>
		<feBlend  in="SourceGraphic" in2="back" mode="normal"/>
	</filter>
</defs>
<mask maskUnits="userSpaceOnUse" x="-299.3" y="-168.1" width="979.3" height="979.5" id="SVGID_8_">
	<g class="st8">
		<g class="st3">
			<defs>
				<filter id="Adobe_OpacityMaskFilter_3_" filterUnits="userSpaceOnUse" x="-299.3" y="-168.1" width="979.3" height="979.5">
					<feFlood  style="flood-color:white;flood-opacity:1" result="back"/>
					<feBlend  in="SourceGraphic" in2="back" mode="normal"/>
				</filter>
			</defs>
			<mask maskUnits="userSpaceOnUse" x="-299.3" y="-168.1" width="979.3" height="979.5" id="SVGID_8_">
				<g class="st9">
					<g class="st3">
					</g>
				</g>
			</mask>
			<g class="st10">
				<g>
					<defs>
						<path id="SVGID_9_" d="M350.3,384.5V258.2h85.8C408.1,150.9,310.4,71.7,194.3,71.7c-138,0-250,112-250,250
							c0,138,112,250,250,250c116.4,0,214.1-79.5,242.1-187.1H350.3z M191.6,279.3l-69.5,80.8h69.5v24.4H86.3v-21.1l69.6-80.9H88.5
							v-24.3h103.1V279.3z M316.9,282.9h-68.6v25.6h68.6v24.8h-68.6v26.5h68.6v24.8h-96.2V258.2h96.2V282.9z"/>
					</defs>
					<clipPath id="SVGID_10_">
						<use xlink:href="#SVGID_9_"  style="overflow:visible;"/>
					</clipPath>
					
						<linearGradient id="SVGID_11_" gradientUnits="userSpaceOnUse" x1="-9.2078" y1="886.243" x2="9.8784" y2="886.243" gradientTransform="matrix(-17.841 22.4023 22.4023 17.841 -19648.3809 -15508.876)">
						<stop  offset="0" style="stop-color:#231815"/>
						<stop  offset="0.4454" style="stop-color:#231815"/>
						<stop  offset="0.5488" style="stop-color:#473E3C"/>
						<stop  offset="0.7783" style="stop-color:#A29E9C"/>
						<stop  offset="1" style="stop-color:#FFFFFF"/>
					</linearGradient>
					<polygon class="st11" points="680,265.7 245.4,811.4 -299.3,377.6 135.3,-168.1 					"/>
				</g>
			</g>
		</g>
	</g>
</mask>
<g>
	<g>
		<g>
			<defs>
				<path id="SVGID_12_" d="M350.3,384.5V258.2h85.8C408.1,150.9,310.4,71.7,194.3,71.7c-138,0-250,112-250,250
					c0,138,112,250,250,250c116.4,0,214.1-79.5,242.1-187.1H350.3z M191.6,279.3l-69.5,80.8h69.5v24.4H86.3v-21.1l69.6-80.9H88.5
					v-24.3h103.1V279.3z M316.9,282.9h-68.6v25.6h68.6v24.8h-68.6v26.5h68.6v24.8h-96.2V258.2h96.2V282.9z"/>
			</defs>
			<clipPath id="SVGID_13_">
				<use xlink:href="#SVGID_12_"  style="overflow:visible;"/>
			</clipPath>
			
				<linearGradient id="SVGID_14_" gradientUnits="userSpaceOnUse" x1="-9.2082" y1="886.243" x2="9.878" y2="886.243" gradientTransform="matrix(-17.841 22.4023 22.4023 17.841 -19648.3809 -15508.877)">
				<stop  offset="0" style="stop-color:#FCD022"/>
				<stop  offset="8.957044e-002" style="stop-color:#FAC71E"/>
				<stop  offset="0.2379" style="stop-color:#F6AD13"/>
				<stop  offset="0.4256" style="stop-color:#F08502"/>
				<stop  offset="0.4454" style="stop-color:#EF8000"/>
				<stop  offset="0.7129" style="stop-color:#EB5A08"/>
				<stop  offset="1" style="stop-color:#E62C12"/>
			</linearGradient>
			<polygon class="st12" points="680,265.7 245.4,811.4 -299.3,377.6 135.3,-168.1 			"/>
		</g>
	</g>
</g>
<defs>
	<filter id="Adobe_OpacityMaskFilter_4_" filterUnits="userSpaceOnUse" x="377.9" y="282.9" width="66" height="25.6">
		<feFlood  style="flood-color:white;flood-opacity:1" result="back"/>
		<feBlend  in="SourceGraphic" in2="back" mode="normal"/>
	</filter>
</defs>
<mask maskUnits="userSpaceOnUse" x="377.9" y="282.9" width="66" height="25.6" id="SVGID_15_">
	<g class="st13">
		<g class="st3">
			<g>
				<defs>
					<path id="SVGID_16_" d="M377.9,282.9v25.6l66-0.4c-0.5-8.6-1.3-17-2.7-25.2H377.9z"/>
				</defs>
				<clipPath id="SVGID_17_">
					<use xlink:href="#SVGID_16_"  style="overflow:visible;"/>
				</clipPath>
				<defs>
					<filter id="Adobe_OpacityMaskFilter_5_" filterUnits="userSpaceOnUse" x="377.9" y="282.9" width="66" height="25.6">
						<feFlood  style="flood-color:white;flood-opacity:1" result="back"/>
						<feBlend  in="SourceGraphic" in2="back" mode="normal"/>
					</filter>
				</defs>
				<mask maskUnits="userSpaceOnUse" x="377.9" y="282.9" width="66" height="25.6" id="SVGID_15_">
					<g class="st14">
						<g class="st3">
						</g>
					</g>
				</mask>
				
					<linearGradient id="SVGID_18_" gradientUnits="userSpaceOnUse" x1="-8.3625" y1="967.6547" x2="10.7237" y2="967.6547" gradientTransform="matrix(9.1916 0 0 -9.1916 350.21 9190)">
					<stop  offset="0" style="stop-color:#231815"/>
					<stop  offset="2.625920e-002" style="stop-color:#2C211E"/>
					<stop  offset="6.979101e-002" style="stop-color:#443A38"/>
					<stop  offset="0.1252" style="stop-color:#6A6361"/>
					<stop  offset="0.1904" style="stop-color:#A09B9A"/>
					<stop  offset="0.2629" style="stop-color:#E4E2E2"/>
					<stop  offset="0.2902" style="stop-color:#FFFFFF"/>
					<stop  offset="1" style="stop-color:#FFFFFF"/>
				</linearGradient>
				<rect x="377.9" y="282.9" class="st15" width="66" height="25.6"/>
			</g>
		</g>
	</g>
</mask>
<g>
	<g>
		<defs>
			<rect id="SVGID_19_" x="377.9" y="282.9" width="66" height="25.6"/>
		</defs>
		<clipPath id="SVGID_20_">
			<use xlink:href="#SVGID_19_"  style="overflow:visible;"/>
		</clipPath>
		<g class="st16">
			<defs>
				<path id="SVGID_21_" d="M377.9,282.9v25.6l66-0.4c-0.5-8.6-1.3-17-2.7-25.2H377.9z"/>
			</defs>
			<clipPath id="SVGID_22_">
				<use xlink:href="#SVGID_21_"  style="overflow:visible;"/>
			</clipPath>
			
				<linearGradient id="SVGID_23_" gradientUnits="userSpaceOnUse" x1="-8.3632" y1="967.6547" x2="10.7229" y2="967.6547" gradientTransform="matrix(9.1916 0 0 -9.1916 350.2096 9190)">
				<stop  offset="0" style="stop-color:#FCD022"/>
				<stop  offset="5.837476e-002" style="stop-color:#FAC71E"/>
				<stop  offset="0.155" style="stop-color:#F6AD13"/>
				<stop  offset="0.2774" style="stop-color:#F08502"/>
				<stop  offset="0.2902" style="stop-color:#EF8000"/>
				<stop  offset="0.4414" style="stop-color:#EE7403"/>
				<stop  offset="0.7152" style="stop-color:#EA5409"/>
				<stop  offset="1" style="stop-color:#E62C12"/>
			</linearGradient>
			<rect x="377.9" y="282.9" class="st17" width="66" height="25.6"/>
		</g>
	</g>
</g>
<defs>
	<filter id="Adobe_OpacityMaskFilter_6_" filterUnits="userSpaceOnUse" x="377.9" y="332.8" width="66.2" height="26.9">
		<feFlood  style="flood-color:white;flood-opacity:1" result="back"/>
		<feBlend  in="SourceGraphic" in2="back" mode="normal"/>
	</filter>
</defs>
<mask maskUnits="userSpaceOnUse" x="377.9" y="332.8" width="66.2" height="26.9" id="SVGID_24_">
	<g class="st18">
		<g class="st3">
			<g>
				<defs>
					<path id="SVGID_25_" d="M377.9,359.8h63.5c1.3-8.8,2.2-17.8,2.6-26.9l-66.2,0.4V359.8z"/>
				</defs>
				<clipPath id="SVGID_26_">
					<use xlink:href="#SVGID_25_"  style="overflow:visible;"/>
				</clipPath>
				<defs>
					<filter id="Adobe_OpacityMaskFilter_7_" filterUnits="userSpaceOnUse" x="377.9" y="332.8" width="66.2" height="26.9">
						<feFlood  style="flood-color:white;flood-opacity:1" result="back"/>
						<feBlend  in="SourceGraphic" in2="back" mode="normal"/>
					</filter>
				</defs>
				<mask maskUnits="userSpaceOnUse" x="377.9" y="332.8" width="66.2" height="26.9" id="SVGID_24_">
					<g class="st19">
						<g class="st3">
						</g>
					</g>
				</mask>
				
					<linearGradient id="SVGID_27_" gradientUnits="userSpaceOnUse" x1="-8.6063" y1="966.8514" x2="10.4799" y2="966.8514" gradientTransform="matrix(8.5358 0 0 -8.5358 357.319 8599.1328)">
					<stop  offset="0" style="stop-color:#231815"/>
					<stop  offset="2.625920e-002" style="stop-color:#2C211E"/>
					<stop  offset="6.979101e-002" style="stop-color:#443A38"/>
					<stop  offset="0.1252" style="stop-color:#6A6361"/>
					<stop  offset="0.1904" style="stop-color:#A09B9A"/>
					<stop  offset="0.2629" style="stop-color:#E4E2E2"/>
					<stop  offset="0.2902" style="stop-color:#FFFFFF"/>
					<stop  offset="1" style="stop-color:#FFFFFF"/>
				</linearGradient>
				<rect x="377.9" y="332.8" class="st20" width="66.2" height="26.9"/>
			</g>
		</g>
	</g>
</mask>
<g>
	<g>
		<defs>
			<rect id="SVGID_28_" x="377.9" y="332.8" width="66.2" height="26.9"/>
		</defs>
		<clipPath id="SVGID_29_">
			<use xlink:href="#SVGID_28_"  style="overflow:visible;"/>
		</clipPath>
		<g class="st21">
			<defs>
				<path id="SVGID_30_" d="M377.9,359.8h63.5c1.3-8.8,2.2-17.8,2.6-26.9l-66.2,0.4V359.8z"/>
			</defs>
			<clipPath id="SVGID_31_">
				<use xlink:href="#SVGID_30_"  style="overflow:visible;"/>
			</clipPath>
			
				<linearGradient id="SVGID_32_" gradientUnits="userSpaceOnUse" x1="-8.6052" y1="966.8515" x2="10.4809" y2="966.8515" gradientTransform="matrix(8.5358 0 0 -8.5358 357.3195 8599.1338)">
				<stop  offset="0" style="stop-color:#FCD022"/>
				<stop  offset="5.837476e-002" style="stop-color:#FAC71E"/>
				<stop  offset="0.155" style="stop-color:#F6AD13"/>
				<stop  offset="0.2774" style="stop-color:#F08502"/>
				<stop  offset="0.2902" style="stop-color:#EF8000"/>
				<stop  offset="0.4414" style="stop-color:#EE7403"/>
				<stop  offset="0.7152" style="stop-color:#EA5409"/>
				<stop  offset="1" style="stop-color:#E62C12"/>
			</linearGradient>
			<rect x="377.9" y="332.8" class="st22" width="66.2" height="26.9"/>
		</g>
	</g>
</g>
<defs>
	<filter id="Adobe_OpacityMaskFilter_8_" filterUnits="userSpaceOnUse" x="-284.9" y="-153.9" width="950.5" height="951.2">
		<feFlood  style="flood-color:white;flood-opacity:1" result="back"/>
		<feBlend  in="SourceGraphic" in2="back" mode="normal"/>
	</filter>
</defs>
<mask maskUnits="userSpaceOnUse" x="-284.9" y="-153.9" width="950.5" height="951.2" id="SVGID_33_">
	<g class="st23">
		<g class="st3">
			<defs>
				<filter id="Adobe_OpacityMaskFilter_9_" filterUnits="userSpaceOnUse" x="-284.9" y="-153.9" width="950.5" height="951.2">
					<feFlood  style="flood-color:white;flood-opacity:1" result="back"/>
					<feBlend  in="SourceGraphic" in2="back" mode="normal"/>
				</filter>
			</defs>
			<mask maskUnits="userSpaceOnUse" x="-284.9" y="-153.9" width="950.5" height="951.2" id="SVGID_33_">
				<g class="st24">
					<g class="st3">
					</g>
				</g>
			</mask>
			<g class="st25">
				<g>
					<defs>
						<path id="SVGID_34_" d="M350.3,384.5V258.2h85.8C408.1,150.9,310.4,71.7,194.3,71.7c-138,0-250,112-250,250
							c0,138,112,250,250,250c116.4,0,214.1-79.5,242.1-187.1H350.3z M191.6,279.3l-69.5,80.8h69.5v24.4H86.3v-21.1l69.6-80.9H88.5
							v-24.3h103.1V279.3z M316.9,282.9h-68.6v25.6h68.6v24.8h-68.6v26.5h68.6v24.8h-96.2V258.2h96.2V282.9z"/>
					</defs>
					<clipPath id="SVGID_35_">
						<use xlink:href="#SVGID_34_"  style="overflow:visible;"/>
					</clipPath>
					
						<linearGradient id="SVGID_36_" gradientUnits="userSpaceOnUse" x1="3.5646" y1="925.8401" x2="22.6508" y2="925.8401" gradientTransform="matrix(23.9529 -15.6993 -15.6993 -23.9529 14393.2754 22715.9258)">
						<stop  offset="0" style="stop-color:#231815"/>
						<stop  offset="0.4454" style="stop-color:#231815"/>
						<stop  offset="0.5488" style="stop-color:#473E3C"/>
						<stop  offset="0.7783" style="stop-color:#A29E9C"/>
						<stop  offset="1" style="stop-color:#FFFFFF"/>
					</linearGradient>
					<polygon class="st26" points="-284.9,221.9 288.5,-153.9 665.6,421.4 92.2,797.2 					"/>
				</g>
			</g>
		</g>
	</g>
</mask>
<g>
	<g>
		<g>
			<defs>
				<path id="SVGID_37_" d="M350.3,384.5V258.2h85.8C408.1,150.9,310.4,71.7,194.3,71.7c-138,0-250,112-250,250
					c0,138,112,250,250,250c116.4,0,214.1-79.5,242.1-187.1H350.3z M191.6,279.3l-69.5,80.8h69.5v24.4H86.3v-21.1l69.6-80.9H88.5
					v-24.3h103.1V279.3z M316.9,282.9h-68.6v25.6h68.6v24.8h-68.6v26.5h68.6v24.8h-96.2V258.2h96.2V282.9z"/>
			</defs>
			<clipPath id="SVGID_38_">
				<use xlink:href="#SVGID_37_"  style="overflow:visible;"/>
			</clipPath>
			
				<linearGradient id="SVGID_39_" gradientUnits="userSpaceOnUse" x1="3.5646" y1="925.8401" x2="22.6508" y2="925.8401" gradientTransform="matrix(23.9529 -15.6993 -15.6993 -23.9529 14393.2744 22715.9258)">
				<stop  offset="0" style="stop-color:#FCD022"/>
				<stop  offset="8.957044e-002" style="stop-color:#FAC71E"/>
				<stop  offset="0.2379" style="stop-color:#F6AD13"/>
				<stop  offset="0.4256" style="stop-color:#F08502"/>
				<stop  offset="0.4454" style="stop-color:#EF8000"/>
				<stop  offset="0.7129" style="stop-color:#EB5A08"/>
				<stop  offset="1" style="stop-color:#E62C12"/>
			</linearGradient>
			<polygon class="st27" points="-284.9,221.9 288.5,-153.9 665.6,421.4 92.2,797.2 			"/>
		</g>
	</g>
</g>
</svg>
